<svg xmlns="http://www.w3.org/2000/svg" viewBox="0 0 359.31 390.62"><defs><style>.cls-1,.cls-13{fill:#e2e7ff;}.cls-1{opacity:0.38;}.cls-2{fill:#61a27d;}.cls-3{fill:#578b71;}.cls-4{fill:#7cc97d;}.cls-5{fill:#a9a7e7;}.cls-6{fill:#24adb2;}.cls-7{fill:#26c6da;}.cls-8{fill:#e1543c;}.cls-9{fill:#ff634d;}.cls-10{fill:#eb594d;}.cls-11{fill:#202f7c;}.cls-12{fill:#4f57a0;}.cls-14{fill:#243fa7;}.cls-15{fill:#fff;}.cls-16{fill:#ff8d68;}.cls-17{fill:#c2d3eb;}.cls-18{fill:#ffc757;}.cls-19{fill:#201360;}.cls-20,.cls-21,.cls-30,.cls-33,.cls-36,.cls-37,.cls-40,.cls-42,.cls-43{fill:none;}.cls-20{stroke:#1b2048;stroke-width:0.83px;}.cls-20,.cls-21,.cls-30,.cls-33,.cls-37,.cls-40,.cls-42,.cls-43{stroke-miterlimit:10;}.cls-21{stroke:#e66657;stroke-width:1.28px;}.cls-22{fill:#2e60be;}.cls-23{fill:#26c6f8;}.cls-24{fill:#cae5ff;}.cls-25{fill:#387ab6;}.cls-26{fill:#dce4ff;}.cls-27{fill:#fba894;}.cls-28{fill:#713336;}.cls-29{fill:#505e83;opacity:0.53;}.cls-30{stroke:#87b8eb;stroke-width:0.36px;}.cls-31{fill:#6787ff;}.cls-32,.cls-35{fill:#bfd9ff;}.cls-33{stroke:#a9a7e7;stroke-width:0.75px;}.cls-34{fill:#edf4ff;}.cls-35{opacity:0.9;}.cls-36{stroke:#a9c2ff;stroke-linecap:round;stroke-linejoin:round;stroke-width:1.08px;}.cls-37{stroke:#84aee5;stroke-width:0.36px;}.cls-38{fill:#ffa402;}.cls-39{fill:#c2d4d9;}.cls-40{stroke:#202f7c;stroke-width:1.1px;}.cls-41{fill:#7a82cc;}.cls-42{stroke:#4f57a0;}.cls-43{stroke:#fff;stroke-width:2px;}</style></defs><g id="Layer_2" data-name="Layer 2"><g id="OBJECTS"><path class="cls-1" d="M184.72,1.79c-100.06,5.38-104.36,113-93.6,154.93s-71,51.64-80.69,120.5,53.79,97.9,99,99S190.1,350.38,197.63,317s29.05-49.49,66.71-55.95,105.43-57,93.6-122.65c0,0-2.77-69.83-68.32-116.2C245.51-9,184.72,1.79,184.72,1.79Z"/><path class="cls-2" d="M249.45,166.67s2.72-34.76-7.5-57.94c-4.09-5.45-6.82-3.41-6.82-3.41s-1.36,14.32,2.05,28,5.45,40.21,5.45,40.21Z"/><path class="cls-3" d="M251.49,163.94s.68-16.36,17.72-30.67S289.66,119,289.66,119s-13.63-.69-23.18,5.45-13,23.17-13.63,25.9-4.77,13.63-4.77,13.63Z"/><path class="cls-3" d="M240.44,166.45s-3.2-16.06-22.24-27.58-22.41-11-22.41-11,13.37-2.77,23.74,1.82S235.9,150.6,237,153.19s6.81,12.73,6.81,12.73Z"/><path class="cls-4" d="M248.08,163.94s17.72-58.62,33.4-72.25c-.68-2-19.09,4.09-24.54,19.09s-6.81,37.48-8.86,43.62A99.32,99.32,0,0,1,243.31,166"/><path class="cls-4" d="M249.45,166.67s-6.82-32-24.54-42.94c-1.36,4.09,18.4,37.48,16.36,52.48S249.45,166.67,249.45,166.67Z"/><path class="cls-5" d="M259.18,202.77H233c-1.61-10.93-3-20.76-3.21-24.52a35.57,35.57,0,0,1,3.39-17H259a35.57,35.57,0,0,1,3.39,17C262.14,182,260.79,191.84,259.18,202.77Z"/><rect class="cls-6" x="20.5" y="137.5" width="48.07" height="65.04" transform="translate(89.07 340.03) rotate(180)"/><rect class="cls-7" x="25.45" y="137.5" width="48.07" height="65.04" transform="translate(98.97 340.03) rotate(180)"/><rect class="cls-8" x="37.47" y="130.9" width="48.07" height="71.63" transform="translate(123 333.43) rotate(180)"/><rect class="cls-9" x="42.42" y="130.9" width="55.14" height="71.63" transform="translate(139.97 333.43) rotate(180)"/><rect class="cls-10" x="42.42" y="130.9" width="9.43" height="71.63" transform="translate(94.26 333.43) rotate(180)"/><path class="cls-11" d="M317.64,148.81s7.54,3.77,10.84,14.61-14.61,40.06-14.61,38.64S296,192.64,296,192.64l9-33Z"/><polyline class="cls-12" points="129.3 206.01 139.25 179.7 164.15 179.7 154.19 206.01"/><polyline class="cls-13" points="219.62 184.91 78.09 184.91 75.62 171.64 217.14 171.64"/><path class="cls-14" d="M204.62,104.46l12.52,67.18H75.62L63.38,106a4.24,4.24,0,0,1,4.17-5h132.9A4.25,4.25,0,0,1,204.62,104.46Z"/><polygon class="cls-15" points="134.9 196.52 97.44 168.6 134.2 166.48 168.84 193.34 134.9 196.52"/><path class="cls-16" d="M145.39,187.45,136,182.27s-9.1-3.77-9.36-3.77-1.06.88-.09,2.74,3.53,2.29,3.53,2.29l1.68,4.69L123,187l-2-.47a41.36,41.36,0,0,0,2,4.36,26,26,0,0,0,3.89,2.94s6.25,5.19,8.49,5.78,10,.94,10,.94l5-.12,4.59.94a21.29,21.29,0,0,0,2-10.48Z"/><polygon class="cls-13" points="89.54 209.13 62.21 387.27 55.61 387.27 73.52 208.19 89.54 209.13"/><polygon class="cls-13" points="33.93 209.13 6.6 387.27 0 387.27 17.91 208.19 33.93 209.13"/><polygon class="cls-17" points="194.17 209.13 221.5 387.27 228.1 387.27 210.19 208.19 194.17 209.13"/><polygon class="cls-17" points="249.78 209.13 277.11 387.27 283.71 387.27 265.8 208.19 249.78 209.13"/><rect class="cls-5" x="14.14" y="207.25" width="246.01" height="8.48" transform="translate(274.29 422.97) rotate(180)"/><path class="cls-18" d="M9.43,211H252.61a4.71,4.71,0,0,0,4.71-4.72h0a4.71,4.71,0,0,0-4.71-4.71H9.43a4.71,4.71,0,0,0-4.72,4.71h0A4.72,4.72,0,0,0,9.43,211Z"/><path class="cls-19" d="M244.46,369.37s-1.55-3.79-8-3.11-7.26,1.87-8.16,5-3.28,6.51-4.8,7.18-7.13,4.11-11.6,4.63-5.11,3.21-4.18,4.49,17.66,3.09,21.38,2.78c0,0,12.59.37,15.6-.48S244.65,370.61,244.46,369.37Z"/><path class="cls-16" d="M242.75,342.23l1.94,29.54a32.75,32.75,0,0,0-8.11,4.05c-5.18,3.8-9.42-.8-9.42-.8L226,356.43Z"/><path class="cls-11" d="M205.24,290.19l19.09,82s9.9,1.42,21.91-4.24c0,0-10.6-77.05-11.31-82S206.66,286,205.24,290.19Z"/><path class="cls-16" d="M282.61,78s-7.83,1.46-13,13-3.91,36.87-1.2,40,11.63,2.61,24.15-.62c13.24-3.42,18.51-16.59,21.41-25.32C319.55,88.41,305.93,69.93,282.61,78Z"/><path class="cls-16" d="M304.37,145.58,299.86,124s-11.6-4.24-19.52,3.16l-2.69,3.28-.92,13.81A79.22,79.22,0,0,0,304.37,145.58Z"/><path class="cls-19" d="M304.62,278.34a195.68,195.68,0,0,1-55.21,6.37c-30-1-33.92-9.51-34.85-17.61s22.36-13,32.5-15.68,44.79-12.63,54.16-2.52S312.77,271.44,304.62,278.34Z"/><path class="cls-19" d="M174.48,369.37s-1.55-3.79-8-3.11-7.27,1.87-8.16,5-3.29,6.51-4.81,7.18-7.12,4.11-11.6,4.63-5.1,3.21-4.17,4.49,17.65,3.09,21.37,2.78c0,0,12.6.37,15.61-.48S174.66,370.61,174.48,369.37Z"/><path class="cls-16" d="M181.91,344.39l-7.07,28.75s-5.65-1.42-9,1.41-9.42.94-9.42.94l5.18-22.62Z"/><path class="cls-11" d="M240.35,248.25c-1.41,0-49.48,16-58.91,23.09-9.42,7.54-24.5,91.55-25.45,93.43s13.67,7.07,23.1,5.66c.47-1.89,22.62-72.7,22.62-77.41,0,0,37.7-1.89,53.72-4.71s26.87-3.3,33.46-20.74-32-18.85-32-18.85Z"/><path class="cls-13" d="M158.11,186.27s-9.19-.23-9.89.71-4,9.43-.94,13l2.59,1.89h8Z"/><path class="cls-13" d="M306,142.44l-2.48-6.36s-14.84-4.59-27.57,1.06a25.19,25.19,0,0,0-4.94,8.13Z"/><path class="cls-11" d="M309.16,143.15s-1.89-3.3-5.18-3.77-18.38-2.36-28.28.47a17.08,17.08,0,0,0-5.66,3.3s-14.13,4.71-18.85,7.54-6.12,24.51-7.07,31.58S246,196.88,246,196.88s-11.31,46.18-11.31,52.78,3.77,14.14,17,18.85,49,2.83,61.27-4.71c3.77-7.54,9.43-97.08,10.37-105.57S309.16,143.15,309.16,143.15Z"/><path class="cls-11" d="M259,148.81s-3.54-2.12-12,3.53-31.81,26.86-34.64,28.28-57.26,4.24-57.26,4.24-7.77,9.9.71,17.67c0,0,52.55,2.12,62.44,1.42s42.89-19.8,42.89-19.8S274.52,164.36,259,148.81Z"/><path class="cls-20" d="M270.3,180s-44.07,23.14-49.21,23.87-24.61,0-24.61,0"/><path class="cls-20" d="M210.8,185.88s-1.47,8.08,3.68,12.85"/><path class="cls-20" d="M207.5,183.67s-4.41,7-2.21,12.12"/><path class="cls-20" d="M270.67,170.82s3.67-12.86-9.19-21.3"/><path class="cls-20" d="M318,158.7s2.57,22.77,2.57,33.42"/><path class="cls-20" d="M304.82,143.64s-16.89-1.47-30.85,0"/><path class="cls-20" d="M194.28,291.64s-8.08-2.57-11-15.05"/><path class="cls-20" d="M188.77,292.75s-4.78-1.47-7-8.08"/><line class="cls-20" x1="218.15" y1="307.07" x2="230.27" y2="367.67"/><path class="cls-19" d="M271.34,93.31a10.91,10.91,0,0,0,4.24,10.61l-.35,7.07s-2.12,6.36-.71,7.07,1.77-.36,1.77-.36,4.59-7.42,6-7.77-3.18,9.89-3.18,9.89,4.59,7.07,13.07,8.13l-1.76-2.47a17.78,17.78,0,0,0,9.89,2.12c6-.35,10.61-9.54,10.61-9.54s-1.06,2.47,0,3.53,7.07-8.13,7.42-19.79l1.77,3.53A68.35,68.35,0,0,0,316.58,88c-3.18-9.19-17.32-15.9-25.09-15.9s-15.56.7-17.68,0-1.06,5.3-1.06,5.3a24,24,0,0,1-1.41-4.6c-1.41-1.06-3.53,7.43-2.83,10.61l.71,3.18s-2.48-3.18-2.83-4.95C265,81.3,265.33,89.07,271.34,93.31Z"/><path class="cls-9" d="M276.47,110.92s1.43-4.73,5.35-2.24-1.65,13.63-4.93,12.67S275.61,112.72,276.47,110.92Z"/><polyline class="cls-21" points="133.02 192.87 123 190.87 121 186.51"/><path class="cls-21" d="M123.36,191.1s5.06,4.25,5.77,4.6,3.89,1.18,3.89,1.18"/><path class="cls-21" d="M278.06,122.89s1.41,4.94-7.07,7.77"/><polygon class="cls-22" points="84.83 160.12 160.24 160.12 150.81 111.11 75.41 111.11 84.83 160.12"/><path class="cls-23" d="M184.46,128.07a2.27,2.27,0,0,1-2.23,2.71H100.14a2.29,2.29,0,0,1-2.24-1.85l-1.21-6.28h86.73Z"/><path class="cls-24" d="M90.17,74.41h82.09a2.28,2.28,0,0,1,2.24,1.84l8.92,46.4H96.69L87.94,77.11A2.27,2.27,0,0,1,90.17,74.41Z"/><path class="cls-25" d="M146.3,130.82c-1.08-3-1.75-5.12-1.75-5.12s-2.48-12.94,8.55-9.62a18.13,18.13,0,0,1,5.63,9c.56,1.88,1.22,3.9,1.88,5.79Z"/><path class="cls-26" d="M123.45,130.82c.21-6.39.6-11.5,1.29-12.88,2-3.72,10.3-7.09,10.3-7.09l11.31,1.69s4.73,1.35,6.24,4.72c.52,1.14,1.75,6.66,3.07,13.56Z"/><path class="cls-16" d="M144.42,103.19a42.67,42.67,0,0,0,2.19,8.75s.41,2.87-5.61,1.64-5.2-4.24-5.2-4.24V97.45Z"/><path class="cls-16" d="M152.86,90.68s-.06,11.31-3.31,16.76c-2.22,2.29-9.77-1.31-13-6.17S133.48,89.09,136,85s10.8-2.85,13.23-1.44S153,88.87,152.86,90.68Z"/><path class="cls-27" d="M137.6,97.07s-2.13-3.29-3.56-1.33,3.51,6,3.89,4.44A5.43,5.43,0,0,0,137.6,97.07Z"/><path class="cls-28" d="M152.86,90.68s4-3.49-.81-8c-2.74-2.05-4.11-.55-7-1.09s-8.06,0-10,3-1.23,10-.68,10.67,2.19,1.09,2.19,2.32.27,2.19.68,2.19.41-2,.41-3.55a23.36,23.36,0,0,1,1-6.43c.68-2.05,3.83-1.91,5.06-1.64S145.75,91.57,152.86,90.68Z"/><path class="cls-29" d="M138,94.08a1.24,1.24,0,0,0-.22-.1h0Z"/><path class="cls-28" d="M136.05,94.81c.4,2,.23,4.78.56,6.25s1.52,2.53,3.44,4.22,6.19,3.94,8,3.2,3-3.48,2.81-3.93c-.79.39-.62-.23-1.46-1.64s-2.7-1.52-4.84-1.18-2.25,2.65-5,.85-1.89-8.38-1.86-8.6C137.19,93.75,135.83,93.32,136.05,94.81Zm7.37,8.5c1-2,3.77-.68,3.77-.68,2.65.85,3,2.87.4,3.43S143,104.6,143.42,103.31Z"/><path class="cls-15" d="M135.8,108.48a13.72,13.72,0,0,0,8.69,4.65c1.1-.43,1.69-2.45,1.69-2.45L147,112s.43,2.53,0,3.54c-.5.08-2.36-1.18-2.36-1.18s-1.27,1.77-2.19,2.11-6.84-3.63-7.43-5.57A4.79,4.79,0,0,1,135.8,108.48Z"/><path class="cls-25" d="M122.59,130.82c.3-6.29.67-11.1,1-12.09,1.35-3.16,6.41-7.21,11.42-7.88,0,0,1.88,8.68,3.73,20Z"/><path class="cls-25" d="M151.73,130.82c-2.66-11.26-4.71-17.95-4.71-17.95a11.89,11.89,0,0,1,6.08,3.21c1,2,2.57,7.81,4.19,14.74Z"/><path class="cls-25" d="M123.6,130.82c-.18-6,.16-11.6,1.14-12.88,3.21-2.7,6.58-2.53,8.27.5.93,1.67,2.15,7.46,3.07,12.38Z"/><path class="cls-30" d="M144.66,114.31c1,3.9,1.75,7.84,2.47,11.79"/><ellipse class="cls-31" cx="92.62" cy="72.12" rx="14.99" ry="19.22" transform="matrix(0.66, -0.75, 0.75, 0.66, -22.74, 93.81)"/><path class="cls-31" d="M72.2,90.35A6.35,6.35,0,0,0,78,95a3.51,3.51,0,0,0,3.48-4.64,6.34,6.34,0,0,0-5.8-4.65A3.51,3.51,0,0,0,72.2,90.35Z"/><path class="cls-15" d="M97,80.74a1.59,1.59,0,0,0,1.32-.61l4.39-5.84a2.23,2.23,0,0,0-.74-3,2.06,2.06,0,0,0-3,0L95.74,75.7,84,66.33a2.06,2.06,0,0,0-3,0,2.23,2.23,0,0,0,.74,3L95.37,80.13A2.65,2.65,0,0,0,97,80.74Z"/><path class="cls-32" d="M217.33,43.83h5.55a1.92,1.92,0,0,0,1.9-2.53l-1.39-5.55a3.45,3.45,0,0,0-3.15-2.52h-5.55a1.91,1.91,0,0,0-1.9,2.52l1.39,5.55A3.45,3.45,0,0,0,217.33,43.83Z"/><path class="cls-33" d="M221.39,60.1h5.55a1.9,1.9,0,0,0,1.89-2.52L227.45,52a3.45,3.45,0,0,0-3.15-2.53h-5.55a1.91,1.91,0,0,0-1.9,2.53l1.39,5.55A3.43,3.43,0,0,0,221.39,60.1Z"/><path class="cls-7" d="M203.73,60.1h5.55a1.9,1.9,0,0,0,1.89-2.52L209.79,52a3.45,3.45,0,0,0-3.16-2.53h-5.55A1.91,1.91,0,0,0,199.19,52l1.38,5.55A3.45,3.45,0,0,0,203.73,60.1Z"/><path class="cls-15" d="M186.06,60.1h5.55a1.9,1.9,0,0,0,1.9-2.52L192.12,52A3.43,3.43,0,0,0,189,49.5h-5.55A1.91,1.91,0,0,0,181.53,52l1.38,5.55A3.45,3.45,0,0,0,186.06,60.1Z"/><path class="cls-7" d="M225.54,76.75h5.55a1.91,1.91,0,0,0,1.9-2.52l-1.39-5.55a3.45,3.45,0,0,0-3.15-2.52H222.9a1.91,1.91,0,0,0-1.9,2.52l1.39,5.55A3.45,3.45,0,0,0,225.54,76.75Z"/><path class="cls-15" d="M230,94.54h5.55A1.9,1.9,0,0,0,237.42,92L236,86.47a3.45,3.45,0,0,0-3.16-2.53h-5.55a1.91,1.91,0,0,0-1.89,2.53L226.82,92A3.45,3.45,0,0,0,230,94.54Z"/><path class="cls-34" d="M207.88,76.75h5.55a1.9,1.9,0,0,0,1.89-2.52l-1.38-5.55a3.45,3.45,0,0,0-3.15-2.52h-5.55a1.9,1.9,0,0,0-1.9,2.52l1.39,5.55A3.43,3.43,0,0,0,207.88,76.75Z"/><path class="cls-33" d="M215.62,107.79h5.55a1.91,1.91,0,0,0,1.89-2.53l-1.38-5.55a3.45,3.45,0,0,0-3.16-2.52H213a1.9,1.9,0,0,0-1.89,2.52l1.38,5.55A3.45,3.45,0,0,0,215.62,107.79Z"/><path class="cls-24" d="M48.62,86.22h2a.7.7,0,0,0,.7-.92l-.51-2a1.28,1.28,0,0,0-1.16-.93h-2a.7.7,0,0,0-.69.93l.5,2A1.27,1.27,0,0,0,48.62,86.22Z"/><path class="cls-24" d="M50.11,92.2h2a.7.7,0,0,0,.69-.93l-.5-2a1.27,1.27,0,0,0-1.16-.92h-2a.69.69,0,0,0-.69.92l.5,2A1.28,1.28,0,0,0,50.11,92.2Z"/><path class="cls-24" d="M43.63,92.2h2a.7.7,0,0,0,.69-.93l-.51-2a1.25,1.25,0,0,0-1.15-.92h-2a.7.7,0,0,0-.7.92l.51,2A1.28,1.28,0,0,0,43.63,92.2Z"/><path class="cls-24" d="M37.14,92.2h2a.71.71,0,0,0,.7-.93l-.51-2a1.27,1.27,0,0,0-1.16-.92h-2a.69.69,0,0,0-.69.92l.51,2A1.26,1.26,0,0,0,37.14,92.2Z"/><path class="cls-24" d="M51.64,98.31h2a.69.69,0,0,0,.7-.92l-.51-2a1.27,1.27,0,0,0-1.16-.93h-2a.7.7,0,0,0-.7.93l.51,2A1.26,1.26,0,0,0,51.64,98.31Z"/><path class="cls-24" d="M53.26,104.84h2a.7.7,0,0,0,.7-.92l-.51-2a1.28,1.28,0,0,0-1.16-.93h-2a.7.7,0,0,0-.69.93l.51,2A1.25,1.25,0,0,0,53.26,104.84Z"/><path class="cls-24" d="M45.15,98.31h2a.7.7,0,0,0,.7-.92l-.51-2a1.28,1.28,0,0,0-1.16-.93h-2a.7.7,0,0,0-.69.93l.5,2A1.27,1.27,0,0,0,45.15,98.31Z"/><path class="cls-24" d="M48,109.71h2a.71.71,0,0,0,.7-.93l-.51-2a1.28,1.28,0,0,0-1.16-.93H47a.7.7,0,0,0-.69.93l.51,2A1.26,1.26,0,0,0,48,109.71Z"/><path class="cls-35" d="M49.27,163.44h67a1.07,1.07,0,0,0,1-1.35l-6.25-24a1.07,1.07,0,0,0-1-.81H43a1.08,1.08,0,0,0-1,1.35l6.25,24A1.1,1.1,0,0,0,49.27,163.44Z"/><line class="cls-36" x1="107.08" y1="142.39" x2="83.77" y2="142.39"/><line class="cls-36" x1="108.88" y1="153.15" x2="85.56" y2="153.15"/><line class="cls-36" x1="99.07" y1="149.09" x2="75.76" y2="149.09"/><line class="cls-36" x1="107.68" y1="145.98" x2="100.69" y2="145.98"/><line class="cls-36" x1="108.64" y1="149.09" x2="101.64" y2="149.09"/><line class="cls-36" x1="80.07" y1="142.39" x2="71.76" y2="142.39"/><path class="cls-37" d="M76,158.2H88.4a.09.09,0,0,0,.09-.12L87.94,156a.1.1,0,0,0-.09-.07H75.44a.09.09,0,0,0-.09.12l.55,2.13A.1.1,0,0,0,76,158.2Z"/><path class="cls-37" d="M91.42,158.2h12.4a.1.1,0,0,0,.1-.12l-.56-2.13a.1.1,0,0,0-.09-.07H90.86a.09.09,0,0,0-.09.12l.55,2.13A.1.1,0,0,0,91.42,158.2Z"/><path class="cls-25" d="M54.19,155.11c.63-.85,3.21-1.46,3.93-2.31a2.69,2.69,0,0,0,.27-1.92,2.82,2.82,0,0,1-.59-.48,13.44,13.44,0,0,1-.7-1.23.41.41,0,0,1-.29.13c-.34,0-1.63-1.77-1.3-2.18.19-.23.5,0,.73.19-.34-.78-.58-1.38-.58-1.38h0l-.09-.3a2.81,2.81,0,0,1,2.79-3.72A5.08,5.08,0,0,1,63,145.63a1.59,1.59,0,0,1,.06.3h0s.06.6.1,1.38c.13-.22.33-.42.64-.19.53.41.12,2.17-.21,2.18a.69.69,0,0,1-.36-.13,8.07,8.07,0,0,1-.09,1.23,1.5,1.5,0,0,1-.47.59,4.16,4.16,0,0,0,1.19,1.81c1.14.85,4,1.46,5.08,2.31a9.81,9.81,0,0,1,2,3.43h-17C53.87,158.1,53.61,155.87,54.19,155.11Z"/><path class="cls-15" d="M140.12,154.87h55c4.83,0,7.77-3.92,6.56-8.74h0c-1.2-4.83-6.09-8.74-10.91-8.74h-55c-4.83,0-7.76,3.91-6.56,8.74h0C130.4,151,135.29,154.87,140.12,154.87Z"/><path class="cls-38" d="M189.26,148.41l2.36,1.09c.22.11.41-.06.32-.28l-1-2.32a.21.21,0,0,1,0-.23l1.28-1.65c.12-.15,0-.42-.27-.45l-2.41-.34a.41.41,0,0,1-.24-.15L187.77,142c-.15-.2-.43-.2-.48,0l-.51,2.11a.2.2,0,0,1-.17.15l-2.24.34c-.21,0-.24.3,0,.45l2.1,1.65a.29.29,0,0,1,.13.23l.18,2.32c0,.22.29.39.46.28l1.81-1.09A.27.27,0,0,1,189.26,148.41Z"/><path class="cls-38" d="M177.66,148.41,180,149.5c.22.11.41-.06.32-.28l-1-2.32a.23.23,0,0,1,0-.23l1.28-1.65c.12-.15,0-.42-.26-.45l-2.42-.34a.41.41,0,0,1-.24-.15L176.17,142c-.15-.2-.44-.2-.48,0l-.52,2.11a.2.2,0,0,1-.16.15l-2.25.34c-.21,0-.23.3,0,.45l2.09,1.65a.33.33,0,0,1,.14.23l.18,2.32a.33.33,0,0,0,.46.28l1.81-1.09A.27.27,0,0,1,177.66,148.41Z"/><path class="cls-38" d="M166.05,148.41l2.36,1.09c.22.11.41-.06.31-.28l-1-2.32a.23.23,0,0,1,0-.23L169,145c.12-.15,0-.42-.26-.45l-2.42-.34a.39.39,0,0,1-.23-.15L164.56,142c-.15-.2-.43-.2-.48,0l-.52,2.11a.2.2,0,0,1-.16.15l-2.25.34c-.21,0-.23.3,0,.45l2.09,1.65a.33.33,0,0,1,.14.23l.18,2.32c0,.22.29.39.46.28l1.81-1.09A.27.27,0,0,1,166.05,148.41Z"/><path class="cls-38" d="M154.44,148.41l2.36,1.09c.22.11.41-.06.32-.28l-1-2.32a.21.21,0,0,1,0-.23l1.27-1.65c.12-.15,0-.42-.26-.45l-2.41-.34a.41.41,0,0,1-.24-.15L153,142c-.15-.2-.43-.2-.48,0l-.51,2.11a.2.2,0,0,1-.17.15l-2.24.34c-.22,0-.24.3,0,.45l2.1,1.65a.29.29,0,0,1,.13.23l.18,2.32c0,.22.29.39.46.28l1.81-1.09A.27.27,0,0,1,154.44,148.41Z"/><path class="cls-39" d="M142.83,148.41l2.36,1.09c.22.11.41-.06.32-.28l-1-2.32a.23.23,0,0,1,0-.23l1.28-1.65c.12-.15,0-.42-.27-.45l-2.41-.34a.41.41,0,0,1-.24-.15L141.34,142c-.14-.2-.43-.2-.48,0l-.51,2.11a.2.2,0,0,1-.17.15l-2.24.34c-.21,0-.23.3,0,.45l2.1,1.65a.33.33,0,0,1,.14.23l.18,2.32c0,.22.28.39.45.28l1.82-1.09A.25.25,0,0,1,142.83,148.41Z"/><ellipse class="cls-11" cx="275.3" cy="114.81" rx="4.54" ry="6.34"/><path class="cls-40" d="M274.61,115.36s-12.67,14-12.67,16.25,4.13,1.93,4.13,1.93"/><path class="cls-11" d="M265.11,133.54a1.66,1.66,0,1,0,1.65-1.65A1.65,1.65,0,0,0,265.11,133.54Z"/><path class="cls-12" d="M297.14,298c-4.5,7.76-18.61,13.43-35.34,13.43S231,305.73,226.45,298Z"/><polygon class="cls-5" points="201.71 258.14 210.19 297.26 215.38 297.26 210.66 259.09 201.71 258.14"/><path class="cls-41" d="M186.16,252h75.94a0,0,0,0,1,0,0v1.89a7.54,7.54,0,0,1-7.54,7.54h-68.4a0,0,0,0,1,0,0V252A0,0,0,0,1,186.16,252Z" transform="translate(448.25 513.46) rotate(180)"/><path class="cls-5" d="M324.24,293l18.38-88.39a5.66,5.66,0,0,0-5.54-6.81H276.27a7.08,7.08,0,0,0-6.93,5.63L250.72,293"/><path class="cls-5" d="M199.34,302.71h115.5a8.76,8.76,0,0,0,8.41-6.31l1-3.38H199.34Z"/><rect class="cls-13" x="256.14" y="307.16" width="9.19" height="82" transform="translate(521.47 696.32) rotate(180)"/><polygon class="cls-12" points="256.14 322.36 265.33 329.78 265.33 307.16 256.14 307.16 256.14 322.36"/><polygon class="cls-13" points="256.42 376.94 259.78 376.94 260.62 376.94 263.99 376.94 298.44 390.62 221.97 390.62 256.42 376.94"/><line class="cls-42" x1="334.52" y1="203.87" x2="279.85" y2="203.87"/><line class="cls-42" x1="274.19" y1="210.2" x2="264.85" y2="257.2"/><line class="cls-42" x1="263.19" y1="265.53" x2="261.19" y2="279.2"/><path class="cls-24" d="M8.34,124.87h44A3.69,3.69,0,0,0,56,120.6l-.33-2.11A3.7,3.7,0,0,0,52,115.37H8a3.7,3.7,0,0,0-3.65,4.27l.33,2.11A3.71,3.71,0,0,0,8.34,124.87Z"/><line class="cls-43" x1="50.52" y1="120.2" x2="12.52" y2="120.2"/><path class="cls-9" d="M168.68,70.2h12c5.71,0,11.32,4.63,12.53,10.33h0c1.21,5.71-2.43,10.34-8.14,10.34h-2.6a9.59,9.59,0,0,1-9.79,6,13.23,13.23,0,0,0,1.57-6h-1.18c-5.7,0-11.31-4.63-12.53-10.34h0C159.33,74.83,163,70.2,168.68,70.2Z"/><line class="cls-43" x1="185.79" y1="78.53" x2="174.45" y2="78.53"/><line class="cls-43" x1="186.74" y1="83.03" x2="168.33" y2="83.03"/></g></g></svg>